
<svg width="559px" height="374px" viewBox="0 0 559 374" version="1.1" xmlns="http://www.w3.org/2000/svg" xmlns:xlink="http://www.w3.org/1999/xlink">
    <!-- Generator: Sketch 43.1 (39012) - http://www.bohemiancoding.com/sketch -->
    <desc>Created with Sketch.</desc>
    <defs></defs>
    <g id="Welcome" stroke="none" stroke-width="1" fill="none" fill-rule="evenodd">
        <g id="gms-sketch" transform="translate(-465.000000, -69.000000)" stroke="#666">
            <g id="Skola" transform="translate(466.000000, 70.000000)">
                <path d="M401.400637,324.603185 L441.138854,325.942675" id="Line" stroke-width="2" stroke-linecap="square"></path>
                <path d="M441.138854,262.986624 L441.138854,325.246919" id="Line" stroke-width="2" stroke-linecap="square"></path>
                <path d="M338.444586,155.827389 L338.444586,212.114329" id="Line" stroke-width="2" stroke-linecap="square"></path>
                <path d="M338.891083,155.827389 L375.503822,151.36242" id="Line" stroke-width="2" stroke-linecap="square"></path>
                <path d="M375.057325,151.36242 L375.057325,210.3" id="Line" stroke-width="2" stroke-linecap="square"></path>
                <path d="M338.891083,212.978981 L374.610828,210.3" id="Line" stroke-width="2" stroke-linecap="square"></path>
                <path d="M282.632484,216.550955 L314.780255,214.764968" id="Line" stroke-width="2" stroke-linecap="square"></path>
                <path d="M146.004459,271.470064 L146.004459,319.69172" id="Line" stroke-width="2" stroke-linecap="square"></path>
                <path d="M146.450955,320.584713 L169.66879,321.477707" id="Line" stroke-width="2" stroke-linecap="square"></path>
                <path d="M146.450955,271.470064 L170.561783,271.470064" id="Line" stroke-width="2" stroke-linecap="square"></path>
                <path d="M91.9783439,318.798726 L122.340127,319.69172" id="Line" stroke-width="2" stroke-linecap="square"></path>
                <path d="M122.786624,271.470064 L122.786624,319.69172" id="Line" stroke-width="2" stroke-linecap="square"></path>
                <path d="M91.9783439,271.470064 L91.9783439,318.798726" id="Line" stroke-width="2" stroke-linecap="square"></path>
                <path d="M91.9783439,271.470064 L122.340127,271.470064" id="Line" stroke-width="2" stroke-linecap="square"></path>
                <path d="M42.4171975,272.809554 L42.8636943,316.575353" id="Line" stroke-width="2" stroke-linecap="square"></path>
                <path d="M42.8636943,271.470064 L71.4394904,271.470064" id="Line" stroke-width="2" stroke-linecap="square"></path>
                <path d="M42.4171975,317.459236 L70.5464968,318.798726" id="Line" stroke-width="2" stroke-linecap="square"></path>
                <path d="M70.9929936,272.363057 L70.9929936,318.798726" id="Line" stroke-width="2" stroke-linecap="square"></path>
                <path d="M146.450955,227.713376 L171.00828,226.373885" id="Line" stroke-width="2" stroke-linecap="square"></path>
                <path d="M146.450955,177.705732 L171.00828,174.580255" id="Line" stroke-width="2" stroke-linecap="square"></path>
                <path d="M123.233121,181.277707 L123.233121,228.606369" id="Line" stroke-width="2" stroke-linecap="square"></path>
                <path d="M91.9783439,186.635669 L91.9783439,230.847608" id="Line" stroke-width="2" stroke-linecap="square"></path>
                <path d="M92.4248408,230.838854 L123.233121,228.606369" id="Line" stroke-width="2" stroke-linecap="square"></path>
                <path d="M91.9783439,185.742675 L123.233121,181.277707" id="Line" stroke-width="2" stroke-linecap="square"></path>
                <path d="M71.4394904,232.178344 L71.4394904,188.421656" id="Line" stroke-width="2" stroke-linecap="square"></path>
                <path d="M42.8636943,233.964331 L71.4394904,232.178344" id="Line" stroke-width="2" stroke-linecap="square"></path>
                <path d="M42.8636943,233.964331 L42.8636943,192.430629" id="Line" stroke-width="2" stroke-linecap="square"></path>
                <path d="M189.31465,169.222293 L189.31465,266.558599" id="Line" stroke-width="2" stroke-linecap="square"></path>
                <path d="M189.761146,169.222293 L212.532484,166.096815" id="Line" stroke-width="2" stroke-linecap="square"></path>
                <path d="M212.532484,265.665605 L189.761146,266.558599" id="Line" stroke-width="2" stroke-linecap="square"></path>
                <path d="M212.532484,165.650318 L212.532484,264.808339" id="Line" stroke-width="2" stroke-linecap="square"></path>
                <path d="M43.3101911,192.440127 L71.4394904,188.421656" id="Line" stroke-width="2" stroke-linecap="square"></path>
                <path d="M195.119108,301.38535 L195.119108,357.643949" id="Line" stroke-linecap="square"></path>
                <path d="M195.119108,301.38535 L212.085987,301.38535" id="Line" stroke-linecap="square"></path>
                <path d="M191.547134,357.643949 L195.119108,357.643949" id="Line" stroke-linecap="square"></path>
                <path d="M181.724204,95.9968153 L181.724204,106.712739" id="Line" stroke-linecap="square"></path>
                <path d="M181.724204,95.9968153 L186.189172,96.8898089" id="Line" stroke-width="2" stroke-linecap="square"></path>
                <path d="M136.181529,121.893631 L167.436306,116.535669" id="Line" stroke-width="2" stroke-linecap="square"></path>
                <path d="M167.882803,98.6757962 L167.882803,116.535669" id="Line" stroke-width="2" stroke-linecap="square"></path>
                <path d="M181.277707,95.5503185 L168.329299,98.6757962" id="Line" stroke-width="2" stroke-linecap="square"></path>
                <path d="M129.03758,106.712739 L129.03758,123.679618" id="Line" stroke-linecap="square"></path>
                <path d="M135.735032,107.605732 L135.735032,121.893631" id="Line" stroke-width="2" stroke-linecap="square"></path>
                <path d="M116.089172,111.177707 L116.089172,125.019108" id="Line" stroke-width="2" stroke-linecap="square"></path>
                <path d="M116.089172,110.73121 L129.03758,107.605732" id="Line" stroke-width="2" stroke-linecap="square"></path>
                <path d="M129.484076,107.159236 L135.735032,107.159236" id="Line" stroke-width="2" stroke-linecap="square"></path>
                <path d="M494.718471,58.044586 L675.996178,26.7898089" id="Line" stroke-width="2" stroke-linecap="square"></path>
                <path d="M494.718471,7.59044586 L494.718471,58.044586" id="Line" stroke-width="2" stroke-linecap="square"></path>
                <path d="M454.533758,8.03694268 L484.002548,0.892993631" id="Line" stroke-width="2" stroke-linecap="square"></path>
                <path d="M484.895541,0.892993631 L494.718471,7.14394904" id="Line" stroke-width="2" stroke-linecap="square"></path>
                <path d="M454.533758,9.37643312 L454.533758,65.188535" id="Line" stroke-width="2" stroke-linecap="square"></path>
                <path d="M304.957325,92.4248408 L246.912739,129.03758" id="Line" stroke-linecap="square"></path>
                <path d="M246.912739,129.03758 L700.553503,60.2770701" id="Line" stroke-linecap="square"></path>
                <path d="M453.640764,65.6350318 L288.436943,94.6573248" id="Line" stroke-width="2" stroke-linecap="square"></path>
                <path d="M102.694268,127.698089 L114.749682,125.465605" id="Line" stroke-width="2" stroke-linecap="square"></path>
                <path d="M101.801274,127.698089 L0.446496815,171.901274" id="Line" stroke-width="2" stroke-linecap="square"></path>
                <path d="M199.13758,72.3324841 L161.631847,147.343949" id="Line" stroke-width="2" stroke-linecap="square"></path>
                <path d="M494.718471,292.008917 L494.718471,368.806369" id="Line" stroke-width="2" stroke-linecap="square"></path>
                <path d="M460.784713,292.008917 L494.718471,292.008917" id="Line" stroke-width="2" stroke-linecap="square"></path>
                <path d="M460.784713,366.127389 L460.784713,292.008917" id="Line" stroke-width="2" stroke-linecap="square"></path>
                <path d="M253.610191,152.701911 L253.610191,132.163057" id="Line" stroke-width="2" stroke-linecap="square"></path>
                <path d="M259.41465,354.964968 L260.75414,161.631847" id="Line" stroke-width="2" stroke-linecap="square"></path>
                <path d="M258.968153,356.304459 L460.784713,366.127389" id="Line" stroke-width="2" stroke-linecap="square"></path>
                <path d="M212.532484,299.152866 L212.532484,358.536943" id="Line" stroke-width="2" stroke-linecap="square"></path>
                <path d="M191.100637,299.152866 L212.532484,299.152866" id="Line" stroke-width="2" stroke-linecap="square"></path>
                <path d="M191.100637,357.197452 L191.100637,299.599363" id="Line" stroke-width="2" stroke-linecap="square"></path>
                <path d="M6.25095541,346.481529 L169.66879,356.304459" id="Line" stroke-width="2" stroke-linecap="square"></path>
                <path d="M171.901274,146.897452 L169.66879,356.304459" id="Line" stroke-width="2" stroke-linecap="square"></path>
                <path d="M8.03694268,174.133758 L171.901274,150.469427" id="Line" stroke-width="2" stroke-linecap="square"></path>
                <path d="M8.03694268,175.026752 L6.25095541,345.827011" id="Line" stroke-width="2" stroke-linecap="square"></path>
                <path d="M0.446496815,172.794268 L8.48343949,173.687261" id="Line" stroke-linecap="square"></path>
                <path d="M170.115287,356.304459 L190.207643,357.197452" id="Line" stroke-width="2" stroke-linecap="square"></path>
                <path d="M212.532484,358.536943 L237.982803,359.429936" id="Line" stroke-width="2" stroke-linecap="square"></path>
                <path d="M238.429299,359.429936 L238.429299,135.735032" id="Line" stroke-width="2" stroke-linecap="square"></path>
                <path d="M238.429299,134.842038 L253.610191,137.521019" id="Line" stroke-width="2" stroke-linecap="square"></path>
                <path d="M238.875796,359.429936 L258.075159,356.304459" id="Line" stroke-width="2" stroke-linecap="square"></path>
                <path d="M260.109254,160.738854 L253.610191,153.373249" id="Line" stroke-width="2" stroke-linecap="square"></path>
                <path d="M253.610191,132.163057 L662.601274,71.4394904" id="Line" stroke-width="2" stroke-linecap="square"></path>
                <path d="M504.541401,95.1038217 L504.541401,369.699363" id="Line" stroke-width="2" stroke-linecap="square"></path>
                <path d="M494.718471,368.806369 L648.313376,375.057325" id="Line" stroke-width="2" stroke-linecap="square"></path>
                <path d="M172.347771,145.557962 L201.816561,84.8343949" id="Line" stroke-width="2" stroke-linecap="square"></path>
                <path d="M237.982803,141.53949 L202.263057,84.3878981" id="Line" stroke-linecap="square"></path>
                <path d="M161.631847,148.236943 L0.892993631,172.347771" id="Line" stroke-width="2" stroke-linecap="square"></path>
                <path d="M200.030573,72.3324841 L289.329936,94.6573248" id="Line" stroke-width="2" stroke-linecap="square"></path>
                <path d="M237.982803,134.395541 L200.030573,72.3324841" id="Line" stroke-width="2" stroke-linecap="square"></path>
                <path d="M262.540127,82.6019108 L262.540127,87.5133758" id="Line" stroke-width="2" stroke-linecap="square"></path>
                <path d="M246.019745,83.4949045 L256.735669,80.8159236" id="Line" stroke-width="2" stroke-linecap="square"></path>
                <path d="M262.986624,82.6019108 L256.735669,80.8159236" id="Line" stroke-width="2" stroke-linecap="square"></path>
                <path d="M484.449045,0.446496815 L484.449045,62.0889358" id="Line" stroke-linecap="square"></path>
                <path d="M192.440127,171.00828 L192.440127,265.665605" id="Line" stroke-linecap="square"></path>
                <path d="M192.440127,171.00828 L212.978981,168.329299" id="Line" stroke-linecap="square"></path>
                <path d="M196.012102,172.794268 L196.012102,262.991045" id="Line" stroke-linecap="square"></path>
                <path d="M196.012102,172.794268 L212.978981,171.00828" id="Line" stroke-linecap="square"></path>
                <path d="M196.012102,263.879618 L212.978981,262.986624" id="Line" stroke-linecap="square"></path>
                <path d="M206.834917,107.318494 C206.834917,107.318494 209.455041,107.716562 211.21799,109.181871 C212.98094,110.64718 215.160602,115.341692 215.160602,115.341692 C215.160602,115.341692 216.359208,121.654091 216.415069,122.353777 C216.47093,123.053462 216.05665,126.565203 216.05665,126.565203 C216.05665,126.565203 215.192888,130.978899 213.45811,133.464772 C211.723333,135.950645 210.501229,137.172749 210.501229,137.172749 C210.501229,137.172749 208.181405,138.777379 207.275379,139.109875 C206.369353,139.442371 203.052214,139.96613 203.052214,139.96613 C203.052214,139.96613 199.759702,139.435422 198.454775,138.511244 C197.149847,137.587066 194.904854,134.495759 194.904854,134.495759 C194.904854,134.495759 191.823651,129.880434 192.577036,124.078777 C193.330422,118.277121 193.333577,119.015775 193.333577,119.015775 C193.333577,119.015775 193.992225,117.013366 194.904854,114.8839 C195.817482,112.754433 197.407257,110.92661 197.407257,110.92661 C197.407257,110.92661 199.967856,108.831575 201.655523,107.958643 C203.343191,107.085712 206.834917,107.318494 206.834917,107.318494 Z" id="Path-2" stroke-width="2"></path>
                <path d="M207.17408,112.553893 C207.17408,112.553893 209.12698,112.850591 210.440987,113.942754 C211.754995,115.034916 213.379597,118.533952 213.379597,118.533952 C213.379597,118.533952 214.272974,123.238875 214.31461,123.760383 C214.356245,124.281891 214.047463,126.899353 214.047463,126.899353 C214.047463,126.899353 213.403662,130.189085 212.110652,132.04192 C210.817642,133.894756 209.906752,134.805647 209.906752,134.805647 C209.906752,134.805647 208.17768,136.001651 207.502377,136.249476 C206.827074,136.4973 204.354657,136.887682 204.354657,136.887682 C204.354657,136.887682 201.900596,136.492121 200.927974,135.803289 C199.955351,135.114457 198.282054,132.810363 198.282054,132.810363 C198.282054,132.810363 195.985492,129.370348 196.547024,125.046105 C197.108557,120.721863 197.110909,121.272416 197.110909,121.272416 C197.110909,121.272416 197.60183,119.779929 198.282054,118.192739 C198.962278,116.605549 200.147211,115.243189 200.147211,115.243189 C200.147211,115.243189 202.055743,113.681662 203.31364,113.031026 C204.571536,112.38039 207.17408,112.553893 207.17408,112.553893 Z" id="Path-2"></path>
                <path d="M146.450955,178.152229 L146.450955,226.820382" id="Line" stroke-width="2" stroke-linecap="square"></path>
                <path d="M282.185987,162.971338 L282.185987,216.550955" id="Line" stroke-width="2" stroke-linecap="square"></path>
                <path d="M281.73949,162.971338 L315.226752,158.952866" id="Line" stroke-width="2" stroke-linecap="square"></path>
                <path d="M315.226752,158.506369 L315.226752,214.87825" id="Line" stroke-width="2" stroke-linecap="square"></path>
                <path d="M282.185987,268.344586 L282.185987,323.080069" id="Line" stroke-width="2" stroke-linecap="square"></path>
                <path d="M281.73949,267.451592 L315.673248,266.558599" id="Line" stroke-width="2" stroke-linecap="square"></path>
                <path d="M315.226752,266.558599 L315.226752,321.924204" id="Line" stroke-width="2" stroke-linecap="square"></path>
                <path d="M281.73949,322.370701 L315.226752,323.263694" id="Line" stroke-width="2" stroke-linecap="square"></path>
                <path d="M338.444586,264.772611 L338.444586,323.737245" id="Line" stroke-width="2" stroke-linecap="square"></path>
                <path d="M338.444586,265.219108 L375.057325,264.326115" id="Line" stroke-width="2" stroke-linecap="square"></path>
                <path d="M374.164331,263.879618 L374.164331,324.60975" id="Line" stroke-width="2" stroke-linecap="square"></path>
                <path d="M338.891083,323.710191 L374.164331,325.049682" id="Line" stroke-width="2" stroke-linecap="square"></path>
                <path d="M400.95414,262.986624 L400.95414,325.049682" id="Line" stroke-width="2" stroke-linecap="square"></path>
                <path d="M401.400637,262.986624 L441.138854,262.986624" id="Line" stroke-width="2" stroke-linecap="square"></path>
                <path d="M442.495818,186.229944 C442.495818,186.229944 446.839218,187.978415 449.280638,188.595477 C451.722058,189.212539 456.117906,189.062131 456.117906,189.062131 C456.117906,189.062131 461.606145,187.973784 464.056469,186.908426 C466.506794,185.843067 470.012034,183.063694 470.012034,183.063694 L473.027509,187.511521 L469.710486,189.622354 C469.710486,189.622354 464.019656,192.226244 463.001053,192.562443 C461.982449,192.898642 457.417036,193.919407 457.417036,193.919407 C457.417036,193.919407 455.209278,194.220954 454.030012,194.220954 C452.850746,194.220954 448.225221,193.919407 448.225221,193.919407 C448.225221,193.919407 446.207799,193.447836 445.209746,193.014764 C444.211692,192.581692 441.138854,191.205479 441.138854,191.205479 L442.495818,186.229944 Z" id="Path-3" stroke-width="2"></path>
                <path d="M456.661889,144.620248 C456.661889,144.620248 453.017488,144.830561 451.625342,145.339721 C450.233196,145.848882 446.509913,147.973473 446.509913,147.973473 C446.509913,147.973473 443.200632,150.963273 441.91246,152.534449 C440.624289,154.105624 439.034569,157.091109 439.034569,157.091109 C439.034569,157.091109 438.220071,158.275892 437.835448,160.448649 C437.450826,162.621405 437.235888,167.251973 437.235888,167.251973 C437.235888,167.251973 437.512081,171.410147 437.835448,173.399158 C438.158815,175.388169 439.034569,178.315555 439.034569,178.315555 C439.034569,178.315555 440.685066,180.701942 441.91246,181.912919 C443.139855,183.123896 444.362059,184.188305 444.362059,184.188305 C444.362059,184.188305 447.846176,185.777084 449.107188,186.229755 C450.3682,186.682426 453.072807,187.145744 453.072807,187.145744 C453.072807,187.145744 456.661889,187.145744 461.578049,185.391637 C466.494208,183.637529 468.027574,181.912919 468.027574,181.912919 L472.010403,178.315555 C472.010403,178.315555 474.07144,174.647352 475.017482,172.080125 C475.963525,169.512897 476.087416,167.251973 476.087416,167.251973 C476.087416,167.251973 476.363769,162.535827 476.087416,160.448649 C475.811062,158.36147 474.408646,154.572955 474.408646,154.572955 C474.408646,154.572955 472.474201,151.360518 471.530755,150.256118 C470.587309,149.151718 466.374534,146.059194 466.374534,146.059194 C466.374534,146.059194 462.780388,144.798377 461.578049,144.620248 C460.375709,144.44212 456.661889,144.620248 456.661889,144.620248 Z" id="Path-4" stroke-width="2"></path>
                <path d="M459.075807,151.234375 C459.075807,151.234375 456.380875,151.389895 455.351423,151.766405 C454.32197,152.142914 451.568708,153.71399 451.568708,153.71399 C451.568708,153.71399 449.121588,155.924862 448.169021,157.086702 C447.216455,158.248542 446.040902,160.456224 446.040902,160.456224 C446.040902,160.456224 445.438604,161.332337 445.154186,162.939029 C444.869769,164.545721 444.710828,167.969895 444.710828,167.969895 C444.710828,167.969895 444.915065,171.044747 445.154186,172.515564 C445.393307,173.986381 446.040902,176.151101 446.040902,176.151101 C446.040902,176.151101 447.261398,177.915766 448.169021,178.81125 C449.076645,179.706733 449.98043,180.493834 449.98043,180.493834 C449.98043,180.493834 452.556836,181.668691 453.489319,182.003428 C454.421801,182.338165 456.421782,182.680776 456.421782,182.680776 C456.421782,182.680776 459.075807,182.680776 462.711167,181.383663 C466.346528,180.08655 467.480409,178.81125 467.480409,178.81125 L470.425599,176.151101 C470.425599,176.151101 471.949677,173.438569 472.649248,171.540177 C473.34882,169.641784 473.440434,167.969895 473.440434,167.969895 C473.440434,167.969895 473.644789,164.482438 473.440434,162.939029 C473.236078,161.39562 472.199031,158.59412 472.199031,158.59412 C472.199031,158.59412 470.768564,156.218614 470.070912,155.401941 C469.37326,154.585269 466.258032,152.298434 466.258032,152.298434 C466.258032,152.298434 463.600264,151.366096 462.711167,151.234375 C461.822071,151.102654 459.075807,151.234375 459.075807,151.234375 Z" id="Path-4"></path>
                <path d="M456.831794,148.304265 C456.831794,148.304265 453.732697,148.483109 452.548855,148.916085 C451.365013,149.349061 448.198836,151.155754 448.198836,151.155754 C448.198836,151.155754 445.384716,153.698197 444.289291,155.034281 C443.193865,156.370365 441.842012,158.909138 441.842012,158.909138 C441.842012,158.909138 441.149385,159.916645 440.822313,161.764296 C440.49524,163.611948 440.312463,167.549654 440.312463,167.549654 C440.312463,167.549654 440.547331,171.08565 440.822313,172.777049 C441.097295,174.468448 441.842012,176.957816 441.842012,176.957816 C441.842012,176.957816 443.245548,178.987133 444.289291,180.016914 C445.333033,181.046695 446.372361,181.95184 446.372361,181.95184 C446.372361,181.95184 449.335157,183.302893 450.407486,183.687832 C451.479816,184.07277 453.779738,184.466763 453.779738,184.466763 C453.779738,184.466763 456.831794,184.466763 461.012359,182.975119 C465.192925,181.483475 466.496856,180.016914 466.496856,180.016914 L469.883744,176.957816 C469.883744,176.957816 471.636391,173.838479 472.44088,171.65538 C473.245368,169.472281 473.350721,167.549654 473.350721,167.549654 C473.350721,167.549654 473.585725,163.539175 473.350721,161.764296 C473.115718,159.989418 471.923142,156.76777 471.923142,156.76777 C471.923142,156.76777 470.278144,154.036003 469.475864,153.096852 C468.673583,152.157701 465.091157,149.527904 465.091157,149.527904 C465.091157,149.527904 462.034796,148.455741 461.012359,148.304265 C459.989923,148.152789 456.831794,148.304265 456.831794,148.304265 Z" id="Path-4"></path>
                <path d="M256.735669,80.8159236 L256.735669,86.1738854" id="Line" stroke-linecap="square"></path>
            </g>
        </g>
    </g>
</svg>
