<?xml version="1.0" encoding="iso-8859-1"?>
<!-- Generator: Adobe Illustrator 19.0.0, SVG Export Plug-In . SVG Version: 6.00 Build 0)  -->
<svg xmlns="http://www.w3.org/2000/svg" xmlns:xlink="http://www.w3.org/1999/xlink" version="1.1" id="Capa_1" x="0px" y="0px" viewBox="0 0 512 512" style="enable-background:new 0 0 512 512;" xml:space="preserve" width="512px" height="512px">
<g>
	<g>
		<path d="M497,241H391V136c0-6.883-4.685-12.883-11.362-14.552c-52.776-12.315-71.98-20.446-108.638-22.592V91h75    c8.284,0,15-6.716,15-15V15c0-8.284-6.716-15-15-15h-90c-8.284,0-15,6.716-15,15c0,19.149,0,63.651,0,83.856    c-36.896,2.159-57.079,10.561-108.638,22.592C125.685,123.117,121,129.117,121,136v105H15c-8.284,0-15,6.716-15,15v241    c0,8.284,6.716,15,15,15c8.26,0,468.778,0,482,0c8.284,0,15-6.716,15-15V256C512,247.716,505.284,241,497,241z M271,30h60v31h-60    V30z M301,482h-90v-76c0-24.813,20.187-45,45-45s45,20.187,45,45V482z M482,482H331v-76c0-41.355-33.645-75-75-75    c-41.355,0-75,33.645-75,75v76H30V271h106c8.284,0,15-6.716,15-15V147.712l50.43-12.607    c74.647-18.662,126.036,6.778,159.57,12.607V256c0,8.284,6.716,15,15,15h106V482z" fill="#868a8e"/>
	</g>
</g>
<g>
	<g>
		<path d="M256,151c-41.355,0-75,33.645-75,75s33.645,75,75,75s75-33.645,75-75C331,184.645,297.355,151,256,151z M256,271    c-24.813,0-45-20.187-45-45c0-19.555,12.541-36.228,30-42.42V226c0,8.284,6.716,14.9,15,14.9h42.42    C292.228,258.359,275.555,271,256,271z M271,211v-27.42c12.764,4.527,22.893,14.656,27.42,27.42H271z" fill="#868a8e"/>
	</g>
</g>
<g>
	<g>
		<path d="M406,301c-24.813,0-45,20.187-45,45c0,11.007,0,80.336,0,90c0,8.284,6.716,15,15,15h60c8.284,0,15-6.716,15-15    c0-10.534,0-75.727,0-90C451,321.187,430.813,301,406,301z M421,421h-30v-30h30V421z M421,361h-30v-15c0-8.271,6.729-15,15-15    s15,6.729,15,15V361z" fill="#868a8e"/>
	</g>
</g>
<g>
	<g>
		<path d="M106,301c-24.813,0-45,20.187-45,45c0,11.007,0,80.336,0,90c0,8.284,6.716,15,15,15h60c8.284,0,15-6.716,15-15    c0-10.534,0-75.727,0-90C151,321.187,130.813,301,106,301z M121,421H91v-30h30V421z M121,361H91v-15c0-8.271,6.729-15,15-15    s15,6.729,15,15V361z" fill="#868a8e"/>
	</g>
</g>
<g>
</g>
<g>
</g>
<g>
</g>
<g>
</g>
<g>
</g>
<g>
</g>
<g>
</g>
<g>
</g>
<g>
</g>
<g>
</g>
<g>
</g>
<g>
</g>
<g>
</g>
<g>
</g>
<g>
</g>
</svg>
